<?xml version="1.0" encoding="UTF-8" standalone="no"?>
<!-- Created with Inkscape (http://www.inkscape.org/) -->

<svg
   version="1.1"
   id="svg2"
   width="254.98666"
   height="147.03999"
   viewBox="0 0 254.98666 147.03999"
   sodipodi:docname="Logo ARS HdF vectorisé.eps"
   xmlns:inkscape="http://www.inkscape.org/namespaces/inkscape"
   xmlns:sodipodi="http://sodipodi.sourceforge.net/DTD/sodipodi-0.dtd"
   xmlns="http://www.w3.org/2000/svg"
   xmlns:svg="http://www.w3.org/2000/svg">
  <defs
     id="defs6" />
  <sodipodi:namedview
     id="namedview4"
     pagecolor="#ffffff"
     bordercolor="#000000"
     borderopacity="0.25"
     inkscape:showpageshadow="2"
     inkscape:pageopacity="0.0"
     inkscape:pagecheckerboard="0"
     inkscape:deskcolor="#d1d1d1" />
  <g
     id="g8"
     inkscape:groupmode="layer"
     inkscape:label="ink_ext_XXXXXX"
     transform="matrix(1.3333333,0,0,-1.3333333,0,147.04)">
    <g
       id="g10"
       transform="scale(0.1)">
      <path
         d="m 335.219,1004.25 c 97.636,0 168.535,-40.937 168.535,-149.645 V 810.516 C 170.164,751.32 27.2109,670.91 5.75391,519.602 H 123.59 c 30.293,88.992 155.957,150.722 380.164,190.086 V 519.602 h 113.402 v 336.597 c 0,179.541 -144.937,245.731 -283.527,245.731 -154.34,0 -255.1485,-78.76 -307.1485,-173.282 l 99.2225,-51.964 c 22.067,55.129 83.5,127.566 209.516,127.566"
         style="fill:#254b9f;fill-opacity:1;fill-rule:nonzero;stroke:none"
         id="path12" />
      <path
         d="m 277.867,384.602 h 15.395 l -7.543,47.722 h -0.297 z m -6.164,-41.25 h -18.449 l 20.457,111.14 h 23.695 l 20.489,-111.14 h -18.477 l -3.395,24.621 h -20.925 l -3.395,-24.621"
         style="fill:#254b9f;fill-opacity:1;fill-rule:nonzero;stroke:none"
         id="path14" />
      <path
         d="m 346.781,376.285 c 6.477,0 11.703,4.934 11.703,20.172 0,15.246 -5.226,20.168 -11.703,20.168 -6.465,0 -11.687,-4.922 -11.687,-20.168 0,-15.238 5.222,-20.172 11.687,-20.172 m -4.914,-28.625 c -6.465,-2.785 -10.785,-6.472 -10.785,-10.926 0,-6.617 5.539,-11.246 17.555,-11.246 12.304,0 16.621,4.934 16.621,11.391 0,7.398 -13.848,8.633 -23.391,10.781 m 34.485,67.121 c -1.247,0.305 -2.157,0.305 -3.243,0.305 -2.906,0 -4.925,-1.231 -6.91,-3.074 1.531,-4.934 2.442,-8.942 2.442,-15.399 0,-20.035 -9.231,-28.64 -21.547,-28.64 -2.461,0 -4.93,0.625 -7.387,0.625 -1.836,-0.465 -5.555,-2.16 -5.555,-5.239 0,-5.687 9.094,-6.035 19.418,-8.156 11.543,-2.465 21.844,-6.152 21.844,-19.238 0,-10.477 -10.156,-18.805 -27.101,-18.805 -18.153,0 -27.383,6.789 -27.383,17.266 0,7.054 4.461,12.929 11.687,16.004 -4.777,1.539 -8.625,5.383 -8.625,10.781 0,5.992 5.246,9.691 10.485,10.621 -6.313,4.453 -9.543,14.625 -9.543,22.941 0,19.082 9.218,30.165 23.246,30.165 5.222,0 11.988,-2.309 14.625,-7.387 2.453,4.285 6.773,7.387 13.547,7.387 v -10.157"
         style="fill:#254b9f;fill-opacity:1;fill-rule:nonzero;stroke:none"
         id="path16" />
      <path
         d="m 418.941,390.77 c -0.285,17.261 -3.371,24.925 -13.386,24.925 -8,0 -13.239,-5.847 -13.407,-24.925 z m -26.793,-9.247 v -4.464 c 0,-19.547 4.485,-26.016 14.954,-26.016 8.468,0 12.003,7.859 13.382,15.113 l 10.469,-1.258 c -1.695,-12 -10.765,-23.058 -25.398,-23.058 -16.774,0 -24.469,12.594 -24.469,41.527 0,28.949 7.695,41.571 24.469,41.571 16.945,0 24.465,-15.09 24.465,-38.176 v -5.239 h -37.872"
         style="fill:#254b9f;fill-opacity:1;fill-rule:nonzero;stroke:none"
         id="path18" />
      <path
         d="m 440.477,423.398 h 10.468 v -8.761 c 5.223,5.371 12.926,10.301 18.141,10.301 11.09,0 17.555,-6.153 17.555,-20.938 v -60.648 h -11.078 v 59.113 c 0,9.238 -2.758,13.23 -8.786,13.23 -5.379,0 -10.308,-3.683 -15.222,-9.851 v -62.492 h -11.078 v 80.046"
         style="fill:#254b9f;fill-opacity:1;fill-rule:nonzero;stroke:none"
         id="path20" />
      <path
         d="m 534.012,399.691 c -1.063,12.012 -5.844,16.004 -12.633,16.004 -9.379,0 -13.383,-5.847 -13.383,-32.328 0,-26.465 4.004,-32.324 13.383,-32.324 7.09,0 11.101,3.695 12.945,17.555 h 10.766 c -1.817,-15.7 -9.215,-26.785 -23.711,-26.785 -16.754,0 -24.449,12.621 -24.449,41.554 0,28.949 7.695,41.571 24.449,41.571 14.496,0 21.269,-9.547 23.426,-25.247 h -10.793"
         style="fill:#254b9f;fill-opacity:1;fill-rule:nonzero;stroke:none"
         id="path22" />
      <path
         d="m 588.48,390.77 c -0.308,17.261 -3.39,24.925 -13.382,24.925 -8.02,0 -13.243,-5.847 -13.407,-24.925 z m -26.789,-9.247 v -4.464 c 0,-19.547 4.454,-26.016 14.938,-26.016 8.461,0 12.019,7.859 13.387,15.113 l 10.48,-1.258 c -1.695,-12 -10.793,-23.058 -25.398,-23.058 -16.801,0 -24.485,12.594 -24.485,41.527 0,28.949 7.684,41.571 24.485,41.571 16.914,0 24.465,-15.09 24.465,-38.176 v -5.239 h -37.872"
         style="fill:#254b9f;fill-opacity:1;fill-rule:nonzero;stroke:none"
         id="path24" />
      <path
         d="m 655.234,404.625 h 6.778 c 10.312,0 14.16,3.844 14.16,17.078 0,13.246 -3.848,17.094 -14.16,17.094 h -6.778 z m 0,-61.273 h -19.093 v 111.14 h 26.777 c 21.414,0 32.328,-9.082 32.328,-32.789 0,-17.863 -6.91,-25.09 -13.387,-28.019 l 16.172,-50.332 h -19.398 l -13.539,46.023 c -2.461,-0.305 -6.465,-0.465 -9.86,-0.465 v -45.558"
         style="fill:#254b9f;fill-opacity:1;fill-rule:nonzero;stroke:none"
         id="path26" />
      <path
         d="m 726.625,432.324 h -7.695 l 15.082,21.242 h 12 z m 14.309,-41.554 c -0.313,17.234 -3.375,24.925 -13.403,24.925 -7.98,0 -13.226,-5.847 -13.383,-24.925 z m -26.786,-9.247 v -4.464 c 0,-19.547 4.469,-26.016 14.95,-26.016 8.461,0 11.988,7.859 13.386,15.086 l 10.454,-1.231 c -1.696,-12 -10.766,-23.085 -25.407,-23.085 -16.765,0 -24.449,12.621 -24.449,41.554 0,28.949 7.684,41.571 24.449,41.571 16.934,0 24.489,-15.09 24.489,-38.176 v -5.239 h -37.872"
         style="fill:#254b9f;fill-opacity:1;fill-rule:nonzero;stroke:none"
         id="path28" />
      <path
         d="m 784.625,376.285 c 6.465,0 11.688,4.934 11.688,20.172 0,15.246 -5.223,20.168 -11.688,20.168 -6.48,0 -11.691,-4.922 -11.691,-20.168 0,-15.238 5.211,-20.172 11.691,-20.172 m -4.934,-28.625 c -6.472,-2.785 -10.765,-6.472 -10.765,-10.926 0,-6.617 5.543,-11.246 17.543,-11.246 12.316,0 16.605,4.934 16.605,11.391 0,7.398 -13.836,8.633 -23.383,10.781 m 34.477,67.121 c -1.223,0.305 -2.145,0.305 -3.23,0.305 -2.918,0 -4.915,-1.231 -6.926,-3.074 1.535,-4.934 2.457,-8.942 2.457,-15.399 0,-20.035 -9.215,-28.64 -21.547,-28.64 -2.457,0 -4.914,0.625 -7.371,0.625 -1.863,-0.465 -5.559,-2.16 -5.559,-5.239 0,-5.687 9.071,-6.035 19.395,-8.156 11.554,-2.465 21.859,-6.152 21.859,-19.238 0,-10.477 -10.172,-18.805 -27.09,-18.805 -18.168,0 -27.383,6.789 -27.383,17.266 0,7.054 4.45,12.929 11.692,16.004 -4.781,1.539 -8.629,5.383 -8.629,10.781 0,5.992 5.23,9.691 10.469,10.621 -6.313,4.453 -9.539,14.625 -9.539,22.941 0,19.082 9.226,30.165 23.246,30.165 5.222,0 12,-2.309 14.625,-7.387 2.437,4.285 6.769,7.387 13.531,7.387 v -10.157"
         style="fill:#254b9f;fill-opacity:1;fill-rule:nonzero;stroke:none"
         id="path30" />
      <path
         d="m 825.066,423.398 h 11.079 v -80.046 h -11.079 z m 0,31.094 h 11.079 v -12.926 h -11.079 v 12.926"
         style="fill:#254b9f;fill-opacity:1;fill-rule:nonzero;stroke:none"
         id="path32" />
      <path
         d="m 871.371,351.043 c 9.395,0 13.383,5.859 13.383,32.324 0,26.481 -3.988,32.328 -13.383,32.328 -9.383,0 -13.387,-5.847 -13.387,-32.328 0,-26.465 4.004,-32.324 13.387,-32.324 m 0,73.895 c 16.777,0 24.484,-12.622 24.484,-41.571 0,-28.933 -7.707,-41.554 -24.484,-41.554 -16.754,0 -24.473,12.621 -24.473,41.554 0,28.949 7.719,41.571 24.473,41.571"
         style="fill:#254b9f;fill-opacity:1;fill-rule:nonzero;stroke:none"
         id="path34" />
      <path
         d="m 906.297,423.398 h 10.476 v -8.761 c 5.223,5.371 12.915,10.301 18.153,10.301 11.086,0 17.543,-6.153 17.543,-20.938 v -60.648 h -11.074 v 59.113 c 0,9.238 -2.782,13.23 -8.778,13.23 -5.383,0 -10.328,-3.683 -15.234,-9.851 v -62.492 h -11.086 v 80.046"
         style="fill:#254b9f;fill-opacity:1;fill-rule:nonzero;stroke:none"
         id="path36" />
      <path
         d="m 1002.47,386.457 c -10.157,-3.09 -26.638,-10.461 -26.638,-23.098 0,-7.546 3.383,-12.316 11.391,-12.316 6.007,0 11.246,4.16 15.247,8.312 z m -35.564,15.078 c 2.149,12.621 9.551,23.403 23.711,23.403 14.773,0 22.943,-8.618 22.943,-22.782 v -44.644 c 0,-7.082 0.77,-12.321 1.99,-14.16 h -11.54 l -1.39,6.773 c -4.311,-4.309 -12.003,-8.312 -17.097,-8.312 -12.46,0 -20.761,8.007 -20.761,20.632 0,19.703 21.691,29.7 37.708,33.243 v 5.703 c 0,8.761 -4.466,14.304 -11.548,14.304 -8.473,0 -12.625,-8.461 -13.856,-15.699 l -10.16,1.539"
         style="fill:#254b9f;fill-opacity:1;fill-rule:nonzero;stroke:none"
         id="path38" />
      <path
         d="m 1031.06,454.492 h 11.09 v -111.14 h -11.09 v 111.14"
         style="fill:#254b9f;fill-opacity:1;fill-rule:nonzero;stroke:none"
         id="path40" />
      <path
         d="m 1090.77,390.77 c -0.31,17.261 -3.38,24.925 -13.39,24.925 -8,0 -13.24,-5.847 -13.4,-24.925 z m -26.79,-9.247 v -4.464 c 0,-19.547 4.47,-26.016 14.95,-26.016 8.46,0 12,7.859 13.39,15.113 l 10.46,-1.258 c -1.69,-12 -10.78,-23.058 -25.4,-23.058 -16.78,0 -24.47,12.594 -24.47,41.527 0,28.949 7.69,41.571 24.47,41.571 16.93,0 24.47,-15.09 24.47,-38.176 v -5.239 h -37.87"
         style="fill:#254b9f;fill-opacity:1;fill-rule:nonzero;stroke:none"
         id="path42" />
      <path
         d="m 1174.45,408.613 c -3.23,3.239 -7.08,7.071 -11.98,7.071 -9.41,0 -14.8,-7.68 -14.8,-32.317 0,-24.621 5.86,-32.324 15.09,-32.324 3.39,0 8.32,3.086 11.69,7.703 z m 2.02,-57.57 h -0.32 c -3.85,-5.691 -9.39,-9.23 -16.47,-9.23 -12.62,0 -23.1,10.777 -23.1,41.554 0,30.789 10.48,41.571 23.1,41.571 5.99,0 11.09,-3.7 14.77,-7.387 v 36.941 h 11.09 v -89.594 c 0,-10.464 0.61,-16.933 1.85,-21.546 h -10.47 l -0.45,7.691"
         style="fill:#254b9f;fill-opacity:1;fill-rule:nonzero;stroke:none"
         id="path44" />
      <path
         d="m 1234.6,390.77 c -0.28,17.261 -3.37,24.925 -13.39,24.925 -7.98,0 -13.24,-5.847 -13.4,-24.925 z m -26.79,-9.247 v -4.464 c 0,-19.547 4.49,-26.016 14.93,-26.016 8.49,0 12.02,7.859 13.4,15.113 l 10.47,-1.258 c -1.69,-12 -10.76,-23.058 -25.4,-23.058 -16.76,0 -24.48,12.594 -24.48,41.527 0,28.949 7.72,41.571 24.48,41.571 16.94,0 24.48,-15.09 24.48,-38.176 v -5.239 h -37.88"
         style="fill:#254b9f;fill-opacity:1;fill-rule:nonzero;stroke:none"
         id="path46" />
      <path
         d="m 1317.08,427.086 c -0.77,9.547 -5.86,12.32 -10.16,12.32 -6.15,0 -9.55,-4.004 -9.55,-10.898 0,-18.965 38.8,-28.047 38.8,-58.215 0,-18.324 -12.33,-28.48 -30.18,-28.48 -17.71,0 -27.87,14.16 -28.64,30.789 l 18.17,2.613 c 0.77,-11.207 5.25,-16.774 11.4,-16.774 6.6,0 11.09,3.539 11.09,10.157 0,22.011 -38.8,27.859 -38.8,59.722 0,17.727 10.76,27.711 29.54,27.711 15.57,0 24.8,-11.23 26.49,-26.941 l -18.16,-2.004"
         style="fill:#254b9f;fill-opacity:1;fill-rule:nonzero;stroke:none"
         id="path48" />
      <path
         d="m 1380.3,386.457 c -10.16,-3.09 -26.63,-10.461 -26.63,-23.098 0,-7.546 3.4,-12.316 11.38,-12.316 6.02,0 11.25,4.16 15.25,8.312 z m -35.56,15.078 c 2.14,12.621 9.54,23.403 23.71,23.403 14.77,0 22.94,-8.618 22.94,-22.782 v -44.644 c 0,-7.082 0.76,-12.321 1.98,-14.16 h -11.53 l -1.38,6.773 c -4.32,-4.309 -12.01,-8.312 -17.08,-8.312 -12.49,0 -20.79,8.007 -20.79,20.632 0,19.703 21.69,29.7 37.71,33.243 v 5.703 c 0,8.761 -4.46,14.304 -11.54,14.304 -8.48,0 -12.62,-8.461 -13.87,-15.699 l -10.15,1.539"
         style="fill:#254b9f;fill-opacity:1;fill-rule:nonzero;stroke:none"
         id="path50" />
      <path
         d="m 1408.44,423.398 h 10.45 v -8.761 c 5.25,5.371 12.94,10.301 18.16,10.301 11.09,0 17.56,-6.153 17.56,-20.938 v -60.648 h -11.09 v 59.113 c 0,9.238 -2.75,13.23 -8.79,13.23 -5.37,0 -10.3,-3.683 -15.21,-9.851 v -62.492 h -11.08 v 80.046"
         style="fill:#254b9f;fill-opacity:1;fill-rule:nonzero;stroke:none"
         id="path52" />
      <path
         d="m 1460.74,423.398 h 10.76 v 26.786 h 11.09 v -26.786 h 14.77 v -9.242 h -14.77 v -56.023 c 0,-4.625 2.46,-7.992 8.01,-7.992 2.14,0 4.94,0.902 6.76,1.523 v -8.312 c -3.08,-0.93 -5.84,-1.539 -10.48,-1.539 -10.45,0 -15.38,4.933 -15.38,17.238 v 55.105 h -10.76 v 9.242"
         style="fill:#254b9f;fill-opacity:1;fill-rule:nonzero;stroke:none"
         id="path54" />
      <path
         d="m 1525.05,432.324 h -7.7 l 15.09,21.242 h 11.99 z m 14.32,-41.554 c -0.32,17.234 -3.4,24.925 -13.4,24.925 -8.01,0 -13.23,-5.847 -13.39,-24.925 z m -26.79,-9.247 v -4.464 c 0,-19.547 4.46,-26.016 14.93,-26.016 8.46,0 12.02,7.859 13.39,15.086 l 10.48,-1.231 c -1.7,-12 -10.79,-23.085 -25.41,-23.085 -16.78,0 -24.47,12.621 -24.47,41.554 0,28.949 7.69,41.571 24.47,41.571 16.92,0 24.48,-15.09 24.48,-38.176 v -5.239 h -37.87"
         style="fill:#254b9f;fill-opacity:1;fill-rule:nonzero;stroke:none"
         id="path56" />
      <path
         d="m 167.227,456.723 c 30.988,0 56.089,-24.782 56.089,-55.785 0,-30.989 -25.101,-56.079 -56.089,-56.079 -30.973,0 -55.762,25.09 -55.762,56.079 0,31.003 24.789,55.785 55.762,55.785"
         style="fill:#ea232c;fill-opacity:1;fill-rule:nonzero;stroke:none"
         id="path58" />
      <path
         d="m 112.621,456.723 c 30.984,0 56.094,-24.782 56.094,-55.785 0,-30.989 -25.11,-56.079 -56.094,-56.079 -30.9882,0 -55.7616,25.09 -55.7616,56.079 0,31.003 24.7734,55.785 55.7616,55.785"
         style="fill:#ffffff;fill-opacity:1;fill-rule:nonzero;stroke:none"
         id="path60" />
      <path
         d="m 55.7656,456.723 c 30.9805,0 56.1014,-24.782 56.1014,-55.785 0,-30.989 -25.1209,-56.079 -56.1014,-56.079 C 24.7891,344.859 0,369.949 0,400.938 c 0,31.003 24.7891,55.785 55.7656,55.785"
         style="fill:#254b9f;fill-opacity:1;fill-rule:nonzero;stroke:none"
         id="path62" />
      <path
         d="M 1224.2,277.738 C 1324.29,134.746 1414.14,98 1553.02,98 c 134.78,0 236.89,87.797 236.89,202.176 0,308.351 -624.93,134.785 -624.93,512.582 0,200.122 157.24,290.002 336.97,290.002 177.69,0 290,-69.45 365.55,-191.99 l -93.95,-65.313 c -71.45,98.004 -149.07,159.283 -275.69,159.283 -118.42,0 -210.33,-57.213 -210.33,-185.842 0,-259.359 624.89,-106.207 624.89,-518.722 C 1912.42,110.266 1736.78,0 1544.87,0 1381.44,0 1234.41,65.3398 1134.37,214.41 l 89.83,63.328"
         style="fill:#7ecb29;fill-opacity:1;fill-rule:nonzero;stroke:none"
         id="path64" />
      <path
         d="m 841.961,519.602 v 201.105 c 53.562,168.574 127.602,261.473 269.379,264.648 v 113.365 c -135.481,0 -203.215,-62.97 -266.231,-174.779 h -3.148 V 1086.18 H 728.555 V 519.602 h 113.406"
         style="fill:#254b9f;fill-opacity:1;fill-rule:nonzero;stroke:none"
         id="path66" />
      <path
         d="M 26.75,273.75 V 227.523 H 58.1523 V 273.75 H 69.707 V 166.793 H 58.1523 v 50.961 H 26.75 V 166.793 H 15.1953 V 273.75 H 26.75"
         style="fill:#254b9f;fill-opacity:1;fill-rule:nonzero;stroke:none"
         id="path68" />
      <path
         d="M 26.75,273.75 V 227.523 H 58.1523 V 273.75 H 69.707 V 166.793 H 58.1523 v 50.961 H 26.75 V 166.793 H 15.1953 V 273.75 Z"
         style="fill:none;stroke:#254b9f;stroke-width:1;stroke-linecap:butt;stroke-linejoin:miter;stroke-miterlimit:10;stroke-dasharray:none;stroke-opacity:1"
         id="path70" />
      <path
         d="m 122.871,208.27 c -9.777,-2.957 -25.6288,-10.079 -25.6288,-22.223 0,-7.254 3.2618,-11.84 10.9648,-11.84 5.773,0 10.813,3.988 14.664,7.996 z m -34.2226,14.519 c 2.0743,12.149 9.1914,22.516 22.8166,22.516 14.219,0 22.07,-8.301 22.07,-21.918 v -42.961 c 0,-6.817 0.742,-11.856 1.93,-13.633 h -11.113 l -1.332,6.523 c -4.153,-4.148 -11.555,-8.007 -16.442,-8.007 -11.9999,0 -19.996,7.703 -19.996,19.851 0,18.961 20.883,28.586 36.289,31.996 v 5.489 c 0,8.445 -4.293,13.777 -11.109,13.777 -8.149,0 -12.1487,-8.156 -13.3323,-15.117 l -9.7813,1.484"
         style="fill:#254b9f;fill-opacity:1;fill-rule:nonzero;stroke:none"
         id="path72" />
      <path
         d="m 122.871,208.27 c -9.777,-2.957 -25.6288,-10.079 -25.6288,-22.223 0,-7.254 3.2618,-11.84 10.9648,-11.84 5.773,0 10.813,3.988 14.664,7.996 z m -34.2226,14.519 c 2.0743,12.149 9.1914,22.516 22.8166,22.516 14.219,0 22.07,-8.301 22.07,-21.918 v -42.961 c 0,-6.817 0.742,-11.856 1.93,-13.633 h -11.113 l -1.332,6.523 c -4.153,-4.148 -11.555,-8.007 -16.442,-8.007 -11.9999,0 -19.996,7.703 -19.996,19.851 0,18.961 20.883,28.586 36.289,31.996 v 5.489 c 0,8.445 -4.293,13.777 -11.109,13.777 -8.149,0 -12.1487,-8.156 -13.3323,-15.117 z"
         style="fill:none;stroke:#254b9f;stroke-width:1;stroke-linecap:butt;stroke-linejoin:miter;stroke-miterlimit:10;stroke-dasharray:none;stroke-opacity:1"
         id="path74" />
      <path
         d="m 200.332,166.793 h -10.07 v 8.445 c -5.039,-5.183 -12.446,-9.929 -17.485,-9.929 -10.668,0 -16.886,5.925 -16.886,20.156 v 58.355 h 10.66 v -56.886 c 0,-8.883 2.672,-12.727 8.445,-12.727 5.188,0 9.926,3.555 14.668,9.481 v 60.132 h 10.668 v -77.027"
         style="fill:#254b9f;fill-opacity:1;fill-rule:nonzero;stroke:none"
         id="path76" />
      <path
         d="m 200.332,166.793 h -10.07 v 8.445 c -5.039,-5.183 -12.446,-9.929 -17.485,-9.929 -10.668,0 -16.886,5.925 -16.886,20.156 v 58.355 h 10.66 v -56.886 c 0,-8.883 2.672,-12.727 8.445,-12.727 5.188,0 9.926,3.555 14.668,9.481 v 60.132 h 10.668 z"
         style="fill:none;stroke:#254b9f;stroke-width:1;stroke-linecap:butt;stroke-linejoin:miter;stroke-miterlimit:10;stroke-dasharray:none;stroke-opacity:1"
         id="path78" />
      <path
         d="m 212.172,243.82 h 10.371 v 25.778 h 10.668 V 243.82 h 14.219 v -8.882 h -14.219 v -53.93 c 0,-4.442 2.363,-7.692 7.695,-7.692 2.074,0 4.742,0.891 6.524,1.473 v -7.996 c -2.961,-0.887 -5.629,-1.484 -10.078,-1.484 -10.071,0 -14.809,4.746 -14.809,16.601 v 53.028 h -10.371 v 8.882"
         style="fill:#254b9f;fill-opacity:1;fill-rule:nonzero;stroke:none"
         id="path80" />
      <path
         d="m 212.172,243.82 h 10.371 v 25.778 h 10.668 V 243.82 h 14.219 v -8.882 h -14.219 v -53.93 c 0,-4.442 2.363,-7.692 7.695,-7.692 2.074,0 4.742,0.891 6.524,1.473 v -7.996 c -2.961,-0.887 -5.629,-1.484 -10.078,-1.484 -10.071,0 -14.809,4.746 -14.809,16.601 v 53.028 h -10.371 z"
         style="fill:none;stroke:#254b9f;stroke-width:1;stroke-linecap:butt;stroke-linejoin:miter;stroke-miterlimit:10;stroke-dasharray:none;stroke-opacity:1"
         id="path82" />
      <path
         d="m 292.746,224.277 c -1.922,6.657 -4.738,12.145 -13.332,12.145 -5.031,0 -8.594,-4.004 -8.594,-9.192 0,-15.699 32.594,-16.585 32.594,-40.585 0,-12.149 -8.891,-21.336 -21.035,-21.336 -13.926,0 -20.887,7.558 -24.594,20.445 l 9.781,2.07 c 2.219,-6.816 6.219,-13.617 14.067,-13.617 5.785,0 11.113,5.328 11.113,11.695 0,17.782 -32.586,18.075 -32.586,40.735 0,10.078 8.293,18.668 19.996,18.668 11.848,0 18.961,-6.817 21.481,-18.364 l -8.891,-2.664"
         style="fill:#254b9f;fill-opacity:1;fill-rule:nonzero;stroke:none"
         id="path84" />
      <path
         d="m 292.746,224.277 c -1.922,6.657 -4.738,12.145 -13.332,12.145 -5.031,0 -8.594,-4.004 -8.594,-9.192 0,-15.699 32.594,-16.585 32.594,-40.585 0,-12.149 -8.891,-21.336 -21.035,-21.336 -13.926,0 -20.887,7.558 -24.594,20.445 l 9.781,2.07 c 2.219,-6.816 6.219,-13.617 14.067,-13.617 5.785,0 11.113,5.328 11.113,11.695 0,17.782 -32.586,18.075 -32.586,40.735 0,10.078 8.293,18.668 19.996,18.668 11.848,0 18.961,-6.817 21.481,-18.364 z"
         style="fill:none;stroke:#254b9f;stroke-width:1;stroke-linecap:butt;stroke-linejoin:miter;stroke-miterlimit:10;stroke-dasharray:none;stroke-opacity:1"
         id="path86" />
      <path
         d="m 316.137,200.422 v 9.769 h 36.437 v -9.769 h -36.437"
         style="fill:#254b9f;fill-opacity:1;fill-rule:nonzero;stroke:none"
         id="path88" />
      <path
         d="m 316.137,200.422 v 9.769 h 36.437 v -9.769 z"
         style="fill:none;stroke:#254b9f;stroke-width:1;stroke-linecap:butt;stroke-linejoin:miter;stroke-miterlimit:10;stroke-dasharray:none;stroke-opacity:1"
         id="path90" />
      <path
         d="m 402.637,229.605 c -3.11,3.106 -6.817,6.817 -11.555,6.817 -9.035,0 -14.223,-7.414 -14.223,-31.109 0,-23.708 5.629,-31.106 14.52,-31.106 3.258,0 8.004,2.957 11.258,7.398 z m 1.929,-55.398 h -0.296 c -3.707,-5.492 -9.04,-8.898 -15.852,-8.898 -12.148,0 -22.227,10.371 -22.227,40.004 0,29.625 10.079,39.992 22.227,39.992 5.773,0 10.668,-3.551 14.219,-7.106 v 35.551 h 10.668 v -86.219 c 0,-10.078 0.59,-16.297 1.777,-20.738 h -10.07 l -0.446,7.414"
         style="fill:#254b9f;fill-opacity:1;fill-rule:nonzero;stroke:none"
         id="path92" />
      <path
         d="m 402.637,229.605 c -3.11,3.106 -6.817,6.817 -11.555,6.817 -9.035,0 -14.223,-7.414 -14.223,-31.109 0,-23.708 5.629,-31.106 14.52,-31.106 3.258,0 8.004,2.957 11.258,7.398 z m 1.929,-55.398 h -0.296 c -3.707,-5.492 -9.04,-8.898 -15.852,-8.898 -12.148,0 -22.227,10.371 -22.227,40.004 0,29.625 10.079,39.992 22.227,39.992 5.773,0 10.668,-3.551 14.219,-7.106 v 35.551 h 10.668 v -86.219 c 0,-10.078 0.59,-16.297 1.777,-20.738 h -10.07 z"
         style="fill:none;stroke:#254b9f;stroke-width:1;stroke-linecap:butt;stroke-linejoin:miter;stroke-miterlimit:10;stroke-dasharray:none;stroke-opacity:1"
         id="path94" />
      <path
         d="m 466.473,212.422 c -0.301,16.586 -3.262,24 -12.891,24 -7.703,0 -12.742,-5.637 -12.887,-24 z m -25.778,-8.887 v -4.293 c 0,-18.816 4.293,-25.035 14.368,-25.035 8.148,0 11.554,7.543 12.886,14.504 l 10.071,-1.18 c -1.625,-11.547 -10.368,-22.222 -24.438,-22.222 -16.148,0 -23.555,12.144 -23.555,40.004 0,27.847 7.407,39.992 23.555,39.992 16.289,0 23.551,-14.52 23.551,-36.742 v -5.028 h -36.438"
         style="fill:#254b9f;fill-opacity:1;fill-rule:nonzero;stroke:none"
         id="path96" />
      <path
         d="m 466.473,212.422 c -0.301,16.586 -3.262,24 -12.891,24 -7.703,0 -12.742,-5.637 -12.887,-24 z m -25.778,-8.887 v -4.293 c 0,-18.816 4.293,-25.035 14.368,-25.035 8.148,0 11.554,7.543 12.886,14.504 l 10.071,-1.18 c -1.625,-11.547 -10.368,-22.222 -24.438,-22.222 -16.148,0 -23.555,12.144 -23.555,40.004 0,27.847 7.407,39.992 23.555,39.992 16.289,0 23.551,-14.52 23.551,-36.742 v -5.028 z"
         style="fill:none;stroke:#254b9f;stroke-width:1;stroke-linecap:butt;stroke-linejoin:miter;stroke-miterlimit:10;stroke-dasharray:none;stroke-opacity:1"
         id="path98" />
      <path
         d="m 488.828,200.422 v 9.769 h 36.438 v -9.769 h -36.438"
         style="fill:#254b9f;fill-opacity:1;fill-rule:nonzero;stroke:none"
         id="path100" />
      <path
         d="m 488.828,200.422 v 9.769 h 36.438 v -9.769 z"
         style="fill:none;stroke:#254b9f;stroke-width:1;stroke-linecap:butt;stroke-linejoin:miter;stroke-miterlimit:10;stroke-dasharray:none;stroke-opacity:1"
         id="path102" />
      <path
         d="m 541.551,273.75 h 45.918 v -9.773 h -34.364 v -36.454 h 25.77 v -9.769 h -25.77 V 166.793 H 541.551 V 273.75"
         style="fill:#254b9f;fill-opacity:1;fill-rule:nonzero;stroke:none"
         id="path104" />
      <path
         d="m 541.551,273.75 h 45.918 v -9.773 h -34.364 v -36.454 h 25.77 v -9.769 h -25.77 v -50.961 h -11.554 z"
         style="fill:none;stroke:#254b9f;stroke-width:1;stroke-linecap:butt;stroke-linejoin:miter;stroke-miterlimit:10;stroke-dasharray:none;stroke-opacity:1"
         id="path106" />
      <path
         d="m 599.164,243.82 h 10.66 v -9.32 h 0.297 c 6.371,9.32 11.113,10.805 19.559,10.805 v -10.078 c -8,0 -14.075,-2.664 -19.856,-13.618 v -54.816 h -10.66 v 77.027"
         style="fill:#254b9f;fill-opacity:1;fill-rule:nonzero;stroke:none"
         id="path108" />
      <path
         d="m 599.164,243.82 h 10.66 v -9.32 h 0.297 c 6.371,9.32 11.113,10.805 19.559,10.805 v -10.078 c -8,0 -14.075,-2.664 -19.856,-13.618 v -54.816 h -10.66 z"
         style="fill:none;stroke:#254b9f;stroke-width:1;stroke-linecap:butt;stroke-linejoin:miter;stroke-miterlimit:10;stroke-dasharray:none;stroke-opacity:1"
         id="path110" />
      <path
         d="m 673.965,208.27 c -9.781,-2.957 -25.633,-10.079 -25.633,-22.223 0,-7.254 3.262,-11.84 10.965,-11.84 5.773,0 10.812,3.988 14.668,7.996 z m -34.227,14.519 c 2.075,12.149 9.192,22.516 22.817,22.516 14.218,0 22.07,-8.301 22.07,-21.918 v -42.961 c 0,-6.817 0.742,-11.856 1.93,-13.633 h -11.114 l -1.332,6.523 c -4.152,-4.148 -11.554,-8.007 -16.441,-8.007 -12.004,0 -20.004,7.703 -20.004,19.851 0,18.961 20.891,28.586 36.301,31.996 v 5.489 c 0,8.445 -4.297,13.777 -11.113,13.777 -8.149,0 -12.149,-8.156 -13.332,-15.117 l -9.782,1.484"
         style="fill:#254b9f;fill-opacity:1;fill-rule:nonzero;stroke:none"
         id="path112" />
      <path
         d="m 673.965,208.27 c -9.781,-2.957 -25.633,-10.079 -25.633,-22.223 0,-7.254 3.262,-11.84 10.965,-11.84 5.773,0 10.812,3.988 14.668,7.996 z m -34.227,14.519 c 2.075,12.149 9.192,22.516 22.817,22.516 14.218,0 22.07,-8.301 22.07,-21.918 v -42.961 c 0,-6.817 0.742,-11.856 1.93,-13.633 h -11.114 l -1.332,6.523 c -4.152,-4.148 -11.554,-8.007 -16.441,-8.007 -12.004,0 -20.004,7.703 -20.004,19.851 0,18.961 20.891,28.586 36.301,31.996 v 5.489 c 0,8.445 -4.297,13.777 -11.113,13.777 -8.149,0 -12.149,-8.156 -13.332,-15.117 z"
         style="fill:none;stroke:#254b9f;stroke-width:1;stroke-linecap:butt;stroke-linejoin:miter;stroke-miterlimit:10;stroke-dasharray:none;stroke-opacity:1"
         id="path114" />
      <path
         d="m 706.98,243.82 h 10.071 v -8.433 c 5.039,5.183 12.445,9.918 17.484,9.918 10.66,0 16.887,-5.926 16.887,-20.141 v -58.371 h -10.668 v 56.887 c 0,8.883 -2.664,12.742 -8.441,12.742 -5.184,0 -9.93,-3.555 -14.665,-9.481 V 166.793 H 706.98 v 77.027"
         style="fill:#254b9f;fill-opacity:1;fill-rule:nonzero;stroke:none"
         id="path116" />
      <path
         d="m 706.98,243.82 h 10.071 v -8.433 c 5.039,5.183 12.445,9.918 17.484,9.918 10.66,0 16.887,-5.926 16.887,-20.141 v -58.371 h -10.668 v 56.887 c 0,8.883 -2.664,12.742 -8.441,12.742 -5.184,0 -9.93,-3.555 -14.665,-9.481 V 166.793 H 706.98 Z"
         style="fill:none;stroke:#254b9f;stroke-width:1;stroke-linecap:butt;stroke-linejoin:miter;stroke-miterlimit:10;stroke-dasharray:none;stroke-opacity:1"
         id="path118" />
      <path
         d="m 802.957,221.016 c -1.043,11.547 -5.629,15.406 -12.148,15.406 -9.036,0 -12.887,-5.637 -12.887,-31.109 0,-25.485 3.851,-31.106 12.887,-31.106 6.808,0 10.66,3.555 12.445,16.879 h 10.367 c -1.773,-15.102 -8.891,-25.777 -22.812,-25.777 -16.149,0 -23.555,12.144 -23.555,40.004 0,27.847 7.406,39.992 23.555,39.992 13.921,0 20.441,-9.188 22.515,-24.289 h -10.367"
         style="fill:#254b9f;fill-opacity:1;fill-rule:nonzero;stroke:none"
         id="path120" />
      <path
         d="m 802.957,221.016 c -1.043,11.547 -5.629,15.406 -12.148,15.406 -9.036,0 -12.887,-5.637 -12.887,-31.109 0,-25.485 3.851,-31.106 12.887,-31.106 6.808,0 10.66,3.555 12.445,16.879 h 10.367 c -1.773,-15.102 -8.891,-25.777 -22.812,-25.777 -16.149,0 -23.555,12.144 -23.555,40.004 0,27.847 7.406,39.992 23.555,39.992 13.921,0 20.441,-9.188 22.515,-24.289 z"
         style="fill:none;stroke:#254b9f;stroke-width:1;stroke-linecap:butt;stroke-linejoin:miter;stroke-miterlimit:10;stroke-dasharray:none;stroke-opacity:1"
         id="path122" />
      <path
         d="m 861.313,212.422 c -0.297,16.586 -3.262,24 -12.887,24 -7.707,0 -12.746,-5.637 -12.891,-24 z m -25.778,-8.887 v -4.293 c 0,-18.816 4.297,-25.035 14.367,-25.035 8.149,0 11.555,7.543 12.891,14.504 l 10.07,-1.18 c -1.625,-11.547 -10.371,-22.222 -24.437,-22.222 -16.153,0 -23.559,12.144 -23.559,40.004 0,27.847 7.406,39.992 23.559,39.992 16.289,0 23.547,-14.52 23.547,-36.742 v -5.028 h -36.438"
         style="fill:#254b9f;fill-opacity:1;fill-rule:nonzero;stroke:none"
         id="path124" />
      <path
         d="m 861.313,212.422 c -0.297,16.586 -3.262,24 -12.887,24 -7.707,0 -12.746,-5.637 -12.891,-24 z m -25.778,-8.887 v -4.293 c 0,-18.816 4.297,-25.035 14.367,-25.035 8.149,0 11.555,7.543 12.891,14.504 l 10.07,-1.18 c -1.625,-11.547 -10.371,-22.222 -24.437,-22.222 -16.153,0 -23.559,12.144 -23.559,40.004 0,27.847 7.406,39.992 23.559,39.992 16.289,0 23.547,-14.52 23.547,-36.742 v -5.028 z"
         style="fill:none;stroke:#254b9f;stroke-width:1;stroke-linecap:butt;stroke-linejoin:miter;stroke-miterlimit:10;stroke-dasharray:none;stroke-opacity:1"
         id="path126" />
    </g>
  </g>
</svg>
